<svg width="32" height="32" viewBox="0 0 32 32" fill="none" xmlns="http://www.w3.org/2000/svg">
<path d="M5.8625 7.1625C5.56875 7.23125 5.75625 7.21875 5.5125 7.25C4.46875 7.475 5.24375 7.675 5.8625 7.1625ZM24.2188 7.58125C24.2938 7.53125 24.5562 7.275 23.7375 7.025C23.7875 7.28125 23.5688 7.25625 23.5688 7.4C24.175 7.95 24.425 8.90625 25.2 9.10625C25.35 8.41875 24.5125 8.08125 24.2188 7.58125ZM5.30625 6.9625C5.4 7.51875 5.81875 6.375 5.825 5.96875C5.6625 6.0625 5.5 6.15625 5.33125 6.23125C5.725 6.43125 5.38125 6.64375 4.95625 6.9625C4.09375 8.0375 5.7625 6.125 5.30625 6.9625ZM16 0C7.1625 0 0 7.1625 0 16C0 24.8312 7.1625 32 16 32C24.8375 32 32 24.8312 32 16C32 7.1625 24.8375 0 16 0ZM16.425 5.3625L16.5 5.3875C16.2 5.775 18.0625 6.90625 16.725 7C15.475 7.35625 17.25 6.675 16.2812 6.79375C16.7938 6.08125 15.875 6.06875 16.425 5.3625ZM8.8375 6.3875C8.3875 6.0125 6.975 6.9 7.46875 6.6875C8.69375 6.20625 7.55 6.7375 7.8375 7.3125C7.575 7.85625 7.75 6.775 7.1 7.41875C6.63125 7.525 5.48125 8.5875 5.625 8.2625C5.5875 8.76875 4.25625 9.36875 4.075 10.2125C3.6375 11.3812 3.96875 10.1687 3.8875 9.7125C3.2625 8.91875 2.125 11.0562 2.4625 11.9C3.03125 10.9 2.9875 11.7937 2.575 12.2375C2.99375 13.0063 2.19375 14.0062 2.9875 14.575C3.3375 14.6562 4.0375 13.4 3.73125 14.7063C3.94375 13.575 4.31875 14.975 4.925 14.6625C4.9625 15.2563 5.33125 14.9812 5.4125 15.7C6.425 15.625 7.35 17.3375 6.14375 17.6625C6.325 17.6125 6.68125 17.9312 7.09375 17.6875C7.79375 18.2437 9.6375 18.3125 9.6875 19.6875C8.41875 20.2938 9.375 21.9562 8.275 22.55C7.0125 22.3625 7.84375 24.1063 7.3125 23.9062C7.525 25.1625 6.0375 23.7437 6.6125 24.4375C7.66875 25.0875 6.15 24.9562 6.625 25.4312C6.09375 25.3188 6.95625 26.4188 7.1 26.825C7.8625 28.0625 6.44375 26.55 6.025 26.1375C5.625 25.3375 4.68125 23.8062 4.41875 22.55C4.26875 20.725 2.85625 19.5 2.53125 17.7188C2.20625 16.725 3.425 15.1312 2.76875 14.575C2.2 14.1312 2.43125 12.6125 2.09375 11.8125C2.9375 8.15625 5.61875 5.075 8.8375 3.25C8.50625 3.49375 10.7313 2.61875 10.475 2.83125C10.4062 2.9875 11.775 2.2375 12.6 2.125C12.5125 2.1375 10.4562 2.875 11.025 2.775C10.1437 3.20625 10.9375 2.9625 11.375 2.74375C10.5 3.3875 9.825 3.20625 8.83125 3.775C7.83125 4.0375 8.0375 5.075 7.325 5.59375C7.74375 5.66875 8.79375 4.5125 9.40625 4.10625C10.8125 3.425 8.69375 5.34375 10.0312 4.51875C9.58125 4.9375 9.675 5.60625 9.4 5.79375C9.2625 5.75625 9.94375 6.11875 8.8375 6.3875ZM11.025 3.5125C10.8812 3.70625 10.6812 4.125 10.5625 3.86875C10.4 3.95 10.3375 4.3 10.0312 4.01875C10.2125 3.8875 10.4 3.575 10.0437 3.76875C10.2063 3.59375 11.6562 3.1 11.575 2.9125C11.8313 2.75 11.8062 2.66875 11.5125 2.76875C11.3625 2.71875 11.8687 2.29375 12.5437 2.2375C12.6375 2.2375 12.675 2.3 12.5063 2.28125C11.4875 2.59375 11.925 2.50625 12.6125 2.28125C12.35 2.43125 12.1687 2.475 12.125 2.54375C12.8125 2.29375 12.0875 2.725 12.2437 2.69375C12.05 2.79375 12.275 2.825 11.9 2.96875C11.9688 2.9125 11.2875 3.375 11.6938 3.2375C11.3 3.6125 11.125 3.61875 11.025 3.5125ZM11.625 4.40625C11.6375 3.80625 12.5 3.425 12.3938 3.39375C13.4563 2.89375 12.025 3.4125 12.8625 2.9625C13.175 2.93125 13.8375 1.93125 14.7563 1.86875C15.7688 1.5625 15.3 1.8875 16.05 1.6L15.9 1.725C15.7687 1.74375 15.9313 1.975 15.4563 2.325C15.4062 2.86875 14.55 2.61875 14.975 3.2C14.7 2.80625 14.2875 3.1875 14.8062 3.225C14.25 3.65 12.9562 3.725 12.3375 4.43125C11.9375 5.00625 11.5688 4.825 11.625 4.40625ZM16.0688 6.40625C15.6438 7.43125 15.2312 6.25625 15.9812 6.06875C16.1688 6.16875 16.2437 6.2 16.0688 6.40625ZM14.4688 4.35625C14.3438 3.89375 14.4438 4.1375 15.1875 3.91875C15.7 4.2875 14.7312 4.53125 14.4688 4.35625ZM26.1063 22.7C25.5188 21.6875 26.8188 20.75 27.2563 19.9C27.2 20.8937 27.075 21.875 26.1063 22.7ZM28.3188 11.1313C27.6812 11.1813 27.1063 11.3313 26.5312 10.9688C25.2062 9.51875 26.775 12.6062 27.2125 11.3438C28.7875 11.9438 27.1875 14.5312 26.1938 14.2625C25.6375 13.0625 24.95 11.7437 23.7375 11.1562C24.6687 12.1875 25.1313 13.4563 26.1313 14.3875C26.2 15.6875 27.5187 13.9125 27.4375 14.9187C27.5625 16.65 25.4813 17.6875 25.8438 19.425C26.6187 21.0062 24.35 21.2937 24.6063 22.7125C23.6938 23.7312 22.7188 25.1063 21.0812 24.8875C21.0812 24.025 20.6438 23.2938 20.5438 22.4062C19.6562 21.2812 21.4813 20.075 20.35 18.9C19.0438 18.6062 20.6187 16.8062 19.275 16.975C18.4688 16.1688 17.2875 16.95 16.1313 16.9562C14.6813 17.0938 13.1875 15.175 13.8313 13.8188C13.3188 12.4062 15.4563 11.9937 15.5125 10.75C16.5375 9.89375 17.9937 10 19.3813 9.8C19.2812 10.7937 20.3312 10.8 21.125 11.1313C21.5688 10.0563 22.95 11.3062 23.8937 10.625C24.2188 9.0375 22.975 9.99375 22.2625 9.4875C21.4 8.225 24.1063 8.8375 23.825 8.175C22.775 8.16875 23.3687 6.88125 22.625 7.6C23.2938 7.71875 22.5063 8.24375 22.525 7.64375C21.5125 7.35 22.4875 8.79375 21.975 8.93125C21.1938 8.60625 21.5625 9.3 21.6437 9.40625C21.3062 10.1375 20.8937 8.33125 19.9375 8.38125C18.9875 7.5125 19.5625 8.775 20.3875 8.98125C20.2125 9.03125 20.4875 9.75 20.2687 9.44375C19.5875 8.50625 18.2937 7.88125 17.525 9.03125C17.4438 10.1062 15.2562 10.4125 15.6062 9.15625C15.0938 7.85625 17.1938 9.11875 17 8.08125C15.65 7.1875 17.3688 7.475 17.825 6.6375C18.8625 6.66875 17.8688 5.7875 18.3563 5.53125C18.3063 6.4875 19.15 6.30625 19.8188 6.125C19.6562 5.575 20.2188 5.59375 19.875 5.1375C21.425 4.51875 18.6938 5.425 19.2437 4.06875C18.575 3.60625 18.9625 5.0875 19.2437 5.24375C19.2625 5.7 18.875 6.2625 18.3438 5.30625C17.5688 5.8125 17.65 4.79375 17.6 4.9C17.5125 4.50625 18.1875 4.4875 18.1938 3.8C18.1375 3.3625 18.15 3.13125 18.4625 3.10625C18.4875 3.16875 19.7437 3.1875 20.1875 3.70625C18.975 3.4625 20.0062 3.90625 20.55 4.15625C19.9688 3.7 20.7812 4.15625 20.3062 3.6375C20.4937 3.675 19.7875 2.925 20.5125 3.58125C20.1188 3.1125 21.2812 3.25 20.5938 2.9C21.6 3.18125 21.0063 2.925 20.4125 2.66875C18.775 1.69375 23.3062 3.9875 21.4562 2.96875C22.6375 3.225 18.9312 2.05625 20.6187 2.56875C19.975 2.2875 20.6 2.44375 21.1812 2.625C20.1375 2.3 18.575 1.69375 18.6375 1.66875C19 1.69375 19.3563 1.775 19.7 1.875C20.7688 2.19375 19.3937 1.8 19.6875 1.80625C23.3625 2.75 26.5813 5.2125 28.5375 8.43125C28.9937 8.9125 30.2375 12.0938 29.5875 10.6812C29.8813 11.8062 29.925 13.0188 30.0812 14.1687C29.7562 13.8062 29.3937 12.4688 29.0812 11.725C28.95 12.0125 28.8 11.3188 28.3188 11.1313Z" fill="#0079EB"/>
</svg>
