<svg width="221" height="48" viewBox="0 0 221 48" fill="none" xmlns="http://www.w3.org/2000/svg">
<path fill-rule="evenodd" clip-rule="evenodd" d="M176.659 17.411C178.564 19.2068 178.018 18.9997 182.442 17.6875C186.322 16.4439 184.483 16.0296 187.952 18.0325C191.085 19.8983 196.188 21.7642 198.571 23.2142C197.685 25.2186 190.064 31.7819 188.226 34.4763C188.908 34.8213 189.451 35.0984 190.2 35.4443C191.357 35.9964 191.085 35.9964 192.446 35.1677C195.44 33.4397 205.035 27.913 206.941 27.083C209.458 28.1887 216.129 31.644 218.441 31.5054C219.531 31.4369 221.3 31.1604 220.956 29.7781C220.074 26.393 214.085 24.5264 210.205 22.7991C208.642 22.1091 209.05 22.1785 208.71 20.4497C208.299 18.5846 205.714 5.04235 205.101 4.35236C204.829 4.14527 202.72 3.24734 202.313 3.03952C202.108 4.28389 201.973 5.66533 201.904 6.97757L201.224 14.6466C201.224 15.8902 201.019 17.341 200.814 18.5153C199.046 17.6174 197.277 16.8573 195.439 15.9595C186.322 11.537 187.952 14.5087 185.845 9.53406C184.618 6.77035 184.618 5.11166 181.965 5.52754C182.442 11.0542 180.947 14.5095 176.659 17.411ZM178.633 10.5713C179.652 10.9172 179.244 12.505 178.088 12.2293L176.522 11.6772C175.571 11.4 175.841 9.742 177.067 10.087L178.633 10.5713ZM1.36009 47.8114C0.476334 48.5021 -0.545349 47.1198 0.34082 46.4977L1.01955 45.877C1.97166 45.1161 2.92497 46.567 2.10835 47.1899L1.36009 47.8114ZM6.05595 44.0104C5.16978 44.7018 4.15051 43.3196 4.96474 42.6297L6.32693 41.5931C7.2119 40.9016 8.23358 42.2138 7.34743 42.9053L6.05595 44.0104ZM11.3633 39.7966C10.5479 40.4873 9.4579 39.1752 10.3441 38.4837L11.7039 37.4471C12.5877 36.7572 13.6777 38.0702 12.7243 38.8294L11.3633 39.7966ZM16.8086 35.8577C15.8565 36.4807 14.9691 35.03 15.8565 34.4077L17.2152 33.4397C18.238 32.8191 19.1206 34.2699 18.1685 34.8921L16.8086 35.8577ZM22.387 31.989C21.4361 32.6112 20.5511 31.1612 21.4361 30.5382L22.8619 29.6403C23.8164 29.0189 24.7014 30.4697 23.8164 31.0903L22.387 31.989ZM28.0374 28.3274C27.1512 28.9488 26.1991 27.5673 27.1512 26.8766L28.6489 25.9787C29.4655 25.4259 30.4848 26.8073 29.4655 27.4988L28.0374 28.3274ZM33.8208 24.8729C32.798 25.425 32.1193 23.905 33.003 23.4221L34.502 22.5234C35.5212 22.0406 36.2707 23.56 35.3174 24.0436L33.8208 24.8729ZM39.7398 21.6247C38.7206 22.1092 37.9698 20.6568 38.9915 20.1047L40.4881 19.3446C41.5097 18.7926 42.1884 20.3811 41.2375 20.8663L39.7398 21.6247ZM45.799 18.5853C44.7762 19.069 44.0279 17.5489 45.0484 17.066L46.5473 16.3053C47.4983 15.8216 48.3149 17.3417 47.2956 17.8246L45.799 18.5853ZM51.8535 15.7532C50.7635 16.1674 50.2191 14.578 51.2408 14.163L52.7373 13.4722C53.8273 13.0586 54.4401 14.7166 53.4184 15.0616L51.8535 15.7532ZM58.113 13.1966C57.0938 13.6109 56.4138 12.0222 57.5015 11.5379L59.0675 10.9857C60.0868 10.5713 60.6996 12.16 59.6791 12.5743L58.113 13.1966ZM64.3749 10.847C63.2178 11.1929 62.8772 9.4656 63.8318 9.18991L65.4638 8.63625C66.6221 8.29126 66.9615 9.94837 66.007 10.2942L64.3749 10.847ZM70.7712 8.70472C69.6823 9.04971 69.2746 7.3926 70.2951 7.11619L71.9295 6.63257C73.0172 6.286 73.4932 7.94469 72.4044 8.22122L70.7712 8.70472ZM77.2369 6.90982C76.2824 7.18551 75.6709 5.59686 76.8292 5.25029L78.46 4.83683C79.6868 4.56114 79.8906 6.28757 78.869 6.49551L77.2369 6.90982ZM83.7675 5.39049C82.6799 5.59686 82.41 3.86886 83.4293 3.66165L85.1321 3.31665C86.2197 3.10955 86.4931 4.76751 85.4031 4.97388L83.7675 5.39049ZM90.3699 4.07752C89.3506 4.28462 88.9394 2.62521 90.0989 2.41884C90.6422 2.28021 91.1865 2.21162 91.8005 2.073C92.7526 1.93522 93.2275 3.59318 92.0727 3.80027C91.4576 3.86886 90.9143 4.00821 90.3699 4.07752ZM97.0408 3.04024C95.88 3.17802 95.7457 1.52018 96.8357 1.38312L98.4665 1.17434C99.6249 1.03656 99.7628 2.76456 98.6716 2.83387L97.0408 3.04024ZM103.708 2.34868C102.62 2.4873 102.416 0.760876 103.571 0.62225L105.273 0.484467C106.292 0.415154 106.566 2.07312 105.341 2.2109L103.708 2.34868ZM110.378 1.93521C109.219 1.93521 109.288 0.207939 110.309 0.207939L112.012 0.137903C113.167 0.137903 113.167 1.79659 112.079 1.86675L110.378 1.93521ZM117.116 1.72812C116.026 1.72812 115.956 0.0693132 117.116 0C117.659 0 118.272 0 118.815 0C119.838 0 119.972 1.72812 118.815 1.72812C118.203 1.72812 117.659 1.72812 117.116 1.72812ZM123.85 1.8659C122.626 1.79659 122.831 0.0685917 123.918 0.13706L125.553 0.207215C126.709 0.276529 126.572 2.00296 125.484 1.93449L123.85 1.8659ZM130.521 2.2109C129.43 2.14231 129.498 0.415156 130.656 0.552937L132.36 0.690839C133.448 0.760152 133.311 2.41799 132.222 2.34795L130.521 2.2109ZM137.188 2.90246C136.169 2.76456 136.236 1.03656 137.393 1.17434C137.939 1.24365 138.549 1.31297 139.093 1.38312C140.116 1.45159 140.048 3.17887 138.888 3.04024C138.345 2.97165 137.802 2.90246 137.188 2.90246ZM143.858 3.73096C142.702 3.52386 143.109 1.8659 144.129 2.073L145.83 2.34868C146.918 2.55589 146.58 4.2153 145.559 4.00821L143.858 3.73096ZM150.528 4.9053C149.437 4.6982 149.711 3.04024 150.799 3.24818L152.499 3.52386C153.521 3.73096 153.249 5.45896 152.159 5.25029L150.528 4.9053ZM157.059 6.28757C156.038 6.08048 156.311 4.35321 157.467 4.62961L159.101 4.97461C160.256 5.32118 159.713 6.90982 158.692 6.63414L157.059 6.28757ZM163.593 7.87538C162.503 7.53123 162.982 5.94258 164.001 6.21826L165.702 6.6333C166.791 6.97829 166.315 8.56694 165.225 8.29125L163.593 7.87538ZM170.056 9.67269C169.037 9.39713 169.445 7.7376 170.535 8.01557L172.167 8.49835C173.189 8.77488 172.847 10.502 171.691 10.1563L170.056 9.67269Z" fill="#0079EB"/>
</svg>
