<svg width="240" height="15" viewBox="0 0 240 15" fill="none" xmlns="http://www.w3.org/2000/svg">
<path d="M192.829 8.70885L202.402 9.87693C208.294 10.5378 213.191 11.2912 217.322 11.8168L222.963 12.5538L227.473 13.2075C230.132 13.5772 232.179 13.8381 233.74 14.0108C239.979 14.7157 238.433 13.9871 238.77 13.4946C239.108 13.0021 241.13 12.9009 235.066 11.547C233.552 11.2179 231.531 10.8058 228.857 10.2951L224.334 9.43453L218.628 8.52942C214.479 7.87714 209.395 7.0525 203.336 6.31529L193.502 5.06823C189.927 4.65284 186.146 4.28907 182.048 3.84756C162.835 1.9164 143.479 0.701253 124.244 0.218693C103.407 -0.290456 82.8323 0.0901347 62.8704 1.354C46.982 2.32256 31.624 3.94456 17.026 6.19556C12.6428 6.84858 8.39391 7.60592 4.29955 8.46399C1.37132 9.05612 -0.146978 9.43811 0.0113672 9.54294C0.826348 10.1794 27.5201 5.55401 65.0777 3.99392C84.8227 3.11443 105.03 3.01944 125.418 3.71021C144.177 4.35838 163.006 5.63391 181.706 7.52326L192.74 8.69202" fill="white"/>
</svg>
