<svg width="142" height="56" viewBox="0 0 142 56" fill="none" xmlns="http://www.w3.org/2000/svg">
<path d="M12.4206 31.7084H8.62522V8.0367H0.444941V4.77608H20.5824V8.0367H12.4206V31.7084Z" fill="#212529"/>
<path d="M32.1159 4.77608C34.3882 4.77608 36.2613 5.05854 37.7352 5.62347C39.2214 6.17612 40.3269 7.02351 41.0515 8.16565C41.7762 9.29551 42.1386 10.7324 42.1386 12.4763C42.1386 13.8518 41.8868 15.0123 41.3832 15.958C40.8796 16.9036 40.2163 17.6773 39.3934 18.2791C38.5827 18.8809 37.7106 19.3537 36.7772 19.6976L44.3126 31.7084H39.9829L33.424 20.6923H28.4679V31.7084H24.691V4.77608H32.1159ZM31.8764 7.98143H28.4679V17.5422H32.1343C34.2592 17.5422 35.813 17.1308 36.7956 16.308C37.7782 15.4729 38.2695 14.2448 38.2695 12.6237C38.2695 10.9412 37.7475 9.7499 36.7035 9.04988C35.6594 8.33758 34.0504 7.98143 31.8764 7.98143Z" fill="#212529"/>
<path d="M99.2101 4.77608L89.6664 31.7084H85.7421L76.1985 4.77608H80.1043L86.0922 22.0924C86.3133 22.6941 86.5221 23.3327 86.7186 24.0082C86.9151 24.6714 87.0993 25.3346 87.2713 25.9977C87.4433 26.6609 87.5845 27.2688 87.6951 27.8215C87.8056 27.2688 87.9407 26.6609 88.1004 25.9977C88.2723 25.3346 88.4627 24.6652 88.6715 23.9898C88.8803 23.302 89.0891 22.6511 89.298 22.0371L95.2673 4.77608H99.2101Z" fill="#212529"/>
<path d="M117.966 31.7084H102.84V4.77608H117.966V8.01828H106.617V16.0317H117.284V19.237H106.617V28.4478H117.966V31.7084Z" fill="#212529"/>
<path d="M123.843 31.7084V4.77608H127.62V28.4294H139.319V31.7084H123.843Z" fill="#212529"/>
<path d="M72.6538 10.0166L72.3582 8.54525C71.025 3.62183 66.5286 0 61.1832 0C55.8629 0 51.3916 3.5841 50.0269 8.4698L49.8068 9.42556C49.6748 10.1235 49.6056 10.8403 49.6056 11.576C49.6056 17.9708 61.1832 30.578 61.1832 30.578C61.1832 30.578 72.7607 17.9708 72.7607 11.576C72.7607 11.0478 72.723 10.5259 72.6538 10.0166ZM54.3284 10.5197C54.3536 9.90973 54.8315 8.4698 54.8315 8.4698C55.8754 5.99237 58.3218 4.24433 61.1832 4.24433C64.0697 4.24433 66.5411 6.0238 67.5662 8.54525C67.5662 8.54525 67.8995 9.28094 67.9813 10.0166C68.0379 10.3813 68.0756 10.7523 68.0756 11.1359C68.0756 14.94 64.9941 18.0211 61.1895 18.0211C57.3848 18.0211 54.3033 14.94 54.3033 11.1359C54.297 10.9221 54.3096 10.7209 54.3284 10.5197ZM61.1832 27.3586C52.8632 20.3414 52.1588 14.4685 52.1588 14.4685C55.1334 21.5675 61.1832 22.8313 61.1832 22.8313C61.1832 22.8313 67.2329 21.5675 70.2075 14.4685C70.2075 14.4685 69.5032 20.3414 61.1832 27.3586Z" fill="#0079EB"/>
<path d="M61.6234 17.0653C61.5605 17.254 61.3844 17.386 61.1832 17.386C60.9819 17.386 60.8058 17.254 60.7429 17.0653L60.2524 16.4051V6.89782C60.2524 6.60229 60.2902 6.30048 60.3593 6.01752C60.4285 5.73457 60.5354 5.45789 60.6675 5.20638C60.787 4.9863 60.9819 4.87312 61.1832 4.87312C61.3781 4.87312 61.5794 4.9863 61.6988 5.20638C61.8372 5.46418 61.9378 5.73457 62.007 6.01752C62.0762 6.30048 62.1139 6.596 62.1139 6.89782V16.4051L61.6234 17.0653Z" fill="#0079EB"/>
<path d="M61.8561 8.24973L66.5663 11.8464C66.755 11.991 66.8619 12.2111 66.8619 12.4438V12.8022L61.8623 11.2868V8.24973H61.8561Z" fill="#0079EB"/>
<path d="M60.5103 8.24973L55.8 11.8464C55.6113 11.991 55.5044 12.2111 55.5044 12.4438V12.8022L60.504 11.2868V8.24973H60.5103Z" fill="#0079EB"/>
<path d="M56.3534 12.1797C56.5295 12.1797 56.6741 12.035 56.6741 11.859V11.2805C56.6741 11.1044 56.5295 10.9598 56.3534 10.9598C56.1773 10.9598 56.0327 11.1044 56.0327 11.2805V11.859C56.039 12.035 56.1773 12.1797 56.3534 12.1797Z" fill="#0079EB"/>
<path d="M66.0129 12.1797C66.189 12.1797 66.3336 12.035 66.3336 11.859V11.2805C66.3336 11.1044 66.189 10.9598 66.0129 10.9598C65.8368 10.9598 65.6922 11.1044 65.6922 11.2805V11.859C65.6922 12.035 65.8368 12.1797 66.0129 12.1797Z" fill="#0079EB"/>
<path d="M59.0827 10.1298C59.2588 10.1298 59.4034 9.98518 59.4034 9.80912V9.23064C59.4034 9.05457 59.2588 8.90995 59.0827 8.90995C58.9066 8.90995 58.762 9.05457 58.762 9.23064V9.80912C58.7683 9.98518 58.9066 10.1298 59.0827 10.1298Z" fill="#0079EB"/>
<path d="M63.2836 10.1298C63.4597 10.1298 63.6043 9.98518 63.6043 9.80912V9.23064C63.6043 9.05457 63.4597 8.90995 63.2836 8.90995C63.1075 8.90995 62.9628 9.05457 62.9628 9.23064V9.80912C62.9628 9.98518 63.1075 10.1298 63.2836 10.1298Z" fill="#0079EB"/>
<path d="M9.7801 49.1462L5.49282 38.3696H5.4529C5.46355 38.5665 5.47153 38.774 5.47685 38.9922C5.4875 39.2051 5.49548 39.4286 5.50081 39.6628C5.50613 39.8969 5.50879 40.1417 5.50879 40.3972V49.1462H4.72638V37.4755H5.97185L10.1074 47.869H10.1553L14.3229 37.4755H15.5364V49.1462H14.73V40.3014C14.73 40.0938 14.7327 39.881 14.738 39.6628C14.7433 39.4446 14.7487 39.229 14.754 39.0162C14.7646 38.798 14.7753 38.5878 14.7859 38.3855H14.738L10.4348 49.1462H9.7801Z" fill="#212529"/>
<path d="M30.071 49.1462L28.4822 45.0192H23.5802L21.9595 49.1462H21.1212L25.7118 37.4356H26.4623L30.9332 49.1462H30.071ZM28.2187 44.2768L26.606 39.9023C26.5634 39.7905 26.5102 39.6468 26.4463 39.4712C26.3878 39.2956 26.3239 39.1093 26.2547 38.9124C26.1909 38.7155 26.127 38.5292 26.0631 38.3536C26.0099 38.5399 25.9513 38.7261 25.8875 38.9124C25.8236 39.0987 25.7624 39.2796 25.7038 39.4552C25.6453 39.6255 25.5894 39.7799 25.5362 39.9182L23.8596 44.2768H28.2187Z" fill="#212529"/>
<path d="M45.388 43.1991C45.388 44.5029 45.1564 45.5966 44.6934 46.48C44.2356 47.3634 43.5543 48.0286 42.6495 48.4757C41.75 48.9227 40.635 49.1462 39.3043 49.1462H36.51V37.4755H39.6716C40.9171 37.4755 41.9629 37.6937 42.8092 38.1301C43.6555 38.5665 44.2968 39.2104 44.7333 40.0619C45.1697 40.9081 45.388 41.9538 45.388 43.1991ZM44.5257 43.231C44.5257 42.1188 44.3447 41.1901 43.9828 40.4451C43.6209 39.7 43.0673 39.1412 42.3222 38.7687C41.577 38.3909 40.6323 38.2019 39.488 38.2019H37.3323V48.4198H39.2644C41.0262 48.4198 42.3435 47.9887 43.2164 47.1266C44.0893 46.2591 44.5257 44.9606 44.5257 43.231Z" fill="#212529"/>
<path d="M58.3577 49.1462H51.9787V37.4755H58.3577V38.2179H52.801V42.6403H58.0464V43.3827H52.801V48.4038H58.3577V49.1462Z" fill="#212529"/>
<path d="M79.5389 46.1367C79.5389 46.8339 79.3633 47.4193 79.012 47.8929C78.6607 48.3612 78.1844 48.7151 77.5829 48.9546C76.9815 49.1888 76.3002 49.3059 75.5391 49.3059C75.0654 49.3059 74.6342 49.2819 74.2457 49.234C73.8625 49.1914 73.5139 49.1329 73.1998 49.0584C72.8911 48.9839 72.609 48.8987 72.3536 48.8029V47.9807C72.7687 48.1404 73.2477 48.2814 73.7906 48.4038C74.3389 48.5209 74.935 48.5794 75.579 48.5794C76.1858 48.5794 76.7233 48.4916 77.1917 48.316C77.6654 48.1404 78.038 47.8743 78.3094 47.5177C78.5809 47.1612 78.7166 46.7115 78.7166 46.1687C78.7166 45.6897 78.6022 45.2985 78.3733 44.9952C78.1498 44.6865 77.8118 44.4231 77.3594 44.2049C76.907 43.9814 76.3374 43.7552 75.6508 43.5264C75.1718 43.3614 74.7354 43.1885 74.3415 43.0075C73.953 42.8213 73.6203 42.6084 73.3435 42.3689C73.0668 42.1241 72.8539 41.8314 72.7048 41.4908C72.5611 41.1449 72.4893 40.7378 72.4893 40.2695C72.4893 39.6255 72.6516 39.0854 72.9763 38.649C73.3063 38.2073 73.7507 37.8747 74.3096 37.6511C74.8738 37.4223 75.5071 37.3079 76.2097 37.3079C76.7686 37.3079 77.2982 37.3611 77.7985 37.4675C78.3041 37.5686 78.7911 37.723 79.2595 37.9305L78.9721 38.641C78.5037 38.4388 78.0353 38.2898 77.5669 38.194C77.0986 38.0982 76.6355 38.0503 76.1778 38.0503C75.6296 38.0503 75.1399 38.1328 74.7088 38.2977C74.283 38.4574 73.945 38.6995 73.6948 39.0242C73.4447 39.3488 73.3196 39.7586 73.3196 40.2535C73.3196 40.7644 73.434 41.1768 73.6629 41.4908C73.8971 41.8048 74.2271 42.0656 74.6529 42.2731C75.084 42.4807 75.5923 42.6829 76.1778 42.8798C76.8697 43.114 77.4658 43.3614 77.9661 43.6222C78.4664 43.8776 78.8523 44.2023 79.1238 44.5961C79.4006 44.9899 79.5389 45.5034 79.5389 46.1367Z" fill="#212529"/>
<path d="M91.0157 49.1462L86.7285 38.3696H86.6885C86.6992 38.5665 86.7072 38.774 86.7125 38.9922C86.7231 39.2051 86.7311 39.4286 86.7365 39.6628C86.7418 39.8969 86.7444 40.1417 86.7444 40.3972V49.1462H85.962V37.4755H87.2075L91.3431 47.869H91.391L95.5585 37.4755H96.772V49.1462H95.9657V40.3014C95.9657 40.0938 95.9683 39.881 95.9736 39.6628C95.979 39.4446 95.9843 39.229 95.9896 39.0162C96.0003 38.798 96.0109 38.5878 96.0216 38.3855H95.9736L91.6704 49.1462H91.0157Z" fill="#212529"/>
<path d="M111.307 49.1462L109.718 45.0192H104.816L103.195 49.1462H102.357L106.947 37.4356H107.698L112.169 49.1462H111.307ZM109.454 44.2768L107.842 39.9023C107.799 39.7905 107.746 39.6468 107.682 39.4712C107.623 39.2956 107.56 39.1093 107.49 38.9124C107.426 38.7155 107.363 38.5292 107.299 38.3536C107.246 38.5399 107.187 38.7261 107.123 38.9124C107.059 39.0987 106.998 39.2796 106.939 39.4552C106.881 39.6255 106.825 39.7799 106.772 39.9182L105.095 44.2768H109.454Z" fill="#212529"/>
<path d="M120.58 37.4755C121.506 37.4755 122.278 37.5766 122.895 37.7789C123.518 37.9811 123.986 38.3137 124.3 38.7767C124.614 39.2397 124.771 39.865 124.771 40.6526C124.771 41.2433 124.662 41.7516 124.444 42.1773C124.231 42.5977 123.936 42.9437 123.558 43.2151C123.18 43.4865 122.743 43.694 122.248 43.8377L125.45 49.1462H124.476L121.466 44.0692H118.568V49.1462H117.746V37.4755H120.58ZM120.5 38.2019H118.568V43.3428H120.891C121.844 43.3428 122.586 43.114 123.119 42.6563C123.656 42.1986 123.925 41.5414 123.925 40.6846C123.925 39.7426 123.643 39.0933 123.079 38.7368C122.515 38.3802 121.655 38.2019 120.5 38.2019Z" fill="#212529"/>
<path d="M134.444 49.1462H133.614V38.2179H129.829V37.4755H138.228V38.2179H134.444V49.1462Z" fill="#212529"/>
</svg>
