<svg width="32" height="32" viewBox="0 0 32 32" fill="none" xmlns="http://www.w3.org/2000/svg">
<path d="M1.20802 20.3488L2.03524 23.4401C3.00167 27.0482 3.48648 28.853 4.58251 30.0227C5.44757 30.9456 6.56671 31.5914 7.7986 31.8787C9.36024 32.2435 11.1651 31.7603 14.7748 30.7939C18.3813 29.8275 20.1861 29.3442 21.3558 28.2482C21.4528 28.1565 21.5467 28.0626 21.6374 27.9666C21.0924 27.9175 20.5507 27.8374 20.0149 27.7266C18.9013 27.5058 17.5781 27.1506 16.0132 26.7314L15.842 26.685L15.802 26.6754C14.0996 26.2178 12.6771 25.837 11.5411 25.4273C10.3459 24.9953 9.26103 24.4625 8.33781 23.5985C7.06789 22.4087 6.17922 20.8691 5.78414 19.1744C5.49613 17.9439 5.57934 16.7375 5.80334 15.4879C6.01775 14.2894 6.40176 12.8526 6.86257 11.1326L7.71859 7.94208L7.74739 7.83008C4.67531 8.6573 3.05767 9.14691 1.97924 10.1565C1.05521 11.0222 0.408723 12.1426 0.121593 13.3758C-0.243217 14.9359 0.239996 16.7407 1.20802 20.3488Z" fill="#0079EB"/>
<path fill-rule="evenodd" clip-rule="evenodd" d="M30.1286 13.9444L29.2998 17.0356C28.3317 20.6437 27.8485 22.4486 26.7525 23.6182C25.8876 24.5417 24.7685 25.1882 23.5364 25.4759C23.3817 25.5121 23.2244 25.5399 23.0644 25.5591C21.6004 25.7399 19.8131 25.2615 16.5618 24.391C12.9537 23.423 11.1489 22.9398 9.97924 21.8438C9.05548 20.9785 8.40902 19.8587 8.12159 18.6261C7.75678 17.0644 8.24 15.2612 9.20802 11.6531L10.0352 8.56182L10.4257 7.11378C11.1537 4.44811 11.6433 2.98087 12.5825 1.97764C13.4476 1.05474 14.5667 0.408865 15.7986 0.121593C17.3602 -0.243217 19.1651 0.239996 22.7748 1.20802C26.3813 2.17445 28.1861 2.65766 29.3558 3.75209C30.2798 4.6178 30.9263 5.73815 31.2134 6.97137C31.5782 8.53302 31.095 10.3363 30.1286 13.9444ZM14.4818 12.4883C14.5226 12.3361 14.593 12.1934 14.689 12.0683C14.785 11.9433 14.9047 11.8384 15.0413 11.7597C15.1778 11.6809 15.3286 11.6299 15.4849 11.6094C15.6412 11.5889 15.8 11.5994 15.9522 11.6403L23.6804 13.7124C23.8367 13.7494 23.9839 13.8174 24.1134 13.9124C24.2428 14.0074 24.3519 14.1274 24.4342 14.2653C24.5164 14.4032 24.5702 14.5563 24.5922 14.7153C24.6142 14.8744 24.6041 15.0363 24.5625 15.1914C24.5208 15.3464 24.4484 15.4916 24.3497 15.6182C24.2509 15.7448 24.1277 15.8503 23.9874 15.9284C23.8471 16.0066 23.6926 16.0557 23.5329 16.073C23.3733 16.0904 23.2118 16.0755 23.058 16.0292L15.3298 13.9588C15.0227 13.8763 14.7608 13.6752 14.6018 13.3998C14.4428 13.1244 14.3996 12.7955 14.4818 12.4883ZM13.2401 17.1268C13.3226 16.8197 13.5237 16.5579 13.7991 16.3989C14.0745 16.2399 14.4017 16.1967 14.709 16.2788L19.3459 17.5221C19.5029 17.5583 19.651 17.6258 19.7813 17.7205C19.9117 17.8152 20.0216 17.9351 20.1046 18.0733C20.1876 18.2114 20.2419 18.3648 20.2644 18.5243C20.2868 18.6839 20.2769 18.8463 20.2352 19.0019C20.1935 19.1576 20.1208 19.3032 20.0216 19.4302C19.9224 19.5571 19.7987 19.6628 19.6578 19.7409C19.5168 19.8191 19.3616 19.868 19.2014 19.8848C19.0411 19.9016 18.8792 19.886 18.7251 19.8389L14.0882 18.5973C13.9359 18.5564 13.7932 18.486 13.6682 18.39C13.5431 18.294 13.4383 18.1743 13.3595 18.0377C13.2808 17.9012 13.2297 17.7505 13.2092 17.5942C13.1887 17.4379 13.1992 17.2791 13.2401 17.1268Z" fill="#0079EB"/>
</svg>
