<svg width="318" height="15" viewBox="0 0 318 15" fill="none" xmlns="http://www.w3.org/2000/svg">
<path d="M255.977 8.66534L268.734 9.8288C276.585 10.4867 283.117 11.238 288.623 11.7616L296.144 12.4959L302.158 13.1476C305.704 13.5161 308.432 13.7759 310.512 13.9479C318.825 14.6497 316.742 13.9213 317.169 13.4281C317.596 12.9349 320.277 12.8323 312.17 11.4806C310.146 11.1521 307.446 10.7408 303.875 10.2312L297.834 9.37245L290.221 8.46986C284.685 7.81943 277.901 6.99701 269.826 6.26273L256.718 5.02036C251.955 4.60671 246.921 4.24487 241.461 3.80541C215.873 1.88395 190.125 0.679375 164.567 0.208107C136.881 -0.288797 109.581 0.104842 83.1312 1.38233C62.0771 2.3617 41.7541 3.99489 22.4664 6.25729C16.6741 6.9137 11.0644 7.67448 5.66414 8.53599C1.80101 9.13057 -0.198928 9.5139 0.0156471 9.61875C1.12405 10.2554 36.3723 5.6086 86.1712 4.02375C112.349 3.13119 139.174 3.02368 166.271 3.70268C191.203 4.34003 216.255 5.60538 241.16 7.48529L255.857 8.64854" fill="white"/>
</svg>
