<svg width="355" height="12" viewBox="0 0 355 12" fill="none" xmlns="http://www.w3.org/2000/svg">
<path d="M285.478 7.12002L299.736 8.09588C308.508 8.63837 315.813 9.29359 321.966 9.73622L330.373 10.3599L337.097 10.9232C341.061 11.2395 344.11 11.4593 346.434 11.6006C355.723 12.1802 353.382 11.4824 353.846 10.9829C354.31 10.4834 357.298 10.3414 348.222 9.1089C345.956 8.81011 342.935 8.43852 338.939 7.98145L332.18 7.21151L323.667 6.42085C317.477 5.85182 309.89 5.12916 300.865 4.51362L286.215 3.464C280.891 3.1204 275.267 2.83259 269.167 2.47342C240.58 0.928245 211.832 0.102342 183.315 0.00697223C152.423 -0.0827344 121.984 0.71246 92.5153 2.37904C69.0571 3.66812 46.4308 5.60029 24.9746 8.14647C18.5305 8.8881 12.2927 9.73142 6.29098 10.6724C1.99705 11.3238 -0.224035 11.7366 0.0178929 11.8383C1.26996 12.4587 40.4683 7.29322 95.9715 4.97584C125.147 3.69821 155.063 3.19614 185.302 3.47661C213.126 3.74728 241.098 4.6442 268.922 6.15787L285.344 7.10499" fill="white"/>
</svg>
